<!--Scalable Vector Graphic-->
<svg xmlns="http://www.w3.org/2000/svg" width="435.38" height="31.583" viewBox="0 0 435.38 31.583">
  <g id="Group_422" data-name="Group 422" transform="translate(-144.808 -310.245)">
    <g id="Group_420" data-name="Group 420">
      <g id="Group_419" data-name="Group 419">
        <g id="Group_418" data-name="Group 418">
          <path id="Path_1282" data-name="Path 1282" d="M176.392,340.393h-5.743V326.036c0-7.108,0-10.049-10.049-10.049s-10.049,2.941-10.049,10.049v14.357h-5.743V326.036c0-7.035,0-15.791,15.792-15.791s15.792,8.756,15.792,15.791Z" fill="#FFFFFF"/>
          <path id="Path_1283" data-name="Path 1283" d="M271.143,341.828c-15.792,0-15.792-8.756-15.792-15.791V311.68h5.743v14.357c0,7.107,0,10.049,10.049,10.049s10.049-2.942,10.049-10.049V311.68h5.743v14.357C286.935,333.072,286.935,341.828,271.143,341.828Z" fill="#FFFFFF"/>
          <path id="Path_1284" data-name="Path 1284" d="M203.5,321.709a6.781,6.781,0,0,1-11.109,0l-6.768-9.669h-7.01L187.687,325a12.451,12.451,0,0,0,9.777,5.331l-7.042,10.061h7.01l19.847-28.354h-7.01Z" fill="#FFFFFF"/>
          <path id="Path_1285" data-name="Path 1285" d="M248.173,335.019c-.042,0-5.251.349-12.2.349-8.1,0-11.485-1.3-11.485-9.332s3.386-9.332,11.485-9.332c6.952,0,12.161.346,12.2.35V311.3c-1.322-.093-6.261-.333-12.2-.333-5.591,0-17.227,0-17.227,15.074s11.636,15.074,17.227,15.074c5.942,0,10.881-.239,12.2-.333Z" fill="#FFFFFF"/>
        </g>
      </g>
    </g>
    <g id="Group_421" data-name="Group 421">
      <path id="Path_1286" data-name="Path 1286" d="M338.953,319.608c-2.747.916-5.685,1.77-8.022,2.5l-1.169-2.591c2.306-.474,5.654-1.359,8.907-2.212Zm2.906,16.453a41.818,41.818,0,0,1-9.665,3.916,20.553,20.553,0,0,0-2.211-2.179,34.523,34.523,0,0,0,9.191-2.969Zm-4.011-19.992a43.6,43.6,0,0,0-6.6-2.588l1.295-1.988a38.974,38.974,0,0,1,6.6,2.336Zm5.969-.854a15.063,15.063,0,0,1-2.685,2.623,8.514,8.514,0,0,0-2.21-1.421,13.152,13.152,0,0,0,4.674-5.524l2.653.41a16.889,16.889,0,0,1-.979,1.8h10.138l.443-.1,1.958.5a20.057,20.057,0,0,1-3.064,4.578l-2.306-.727a15.135,15.135,0,0,0,1.58-2.149H349.66c.7,2.276,2.464,4.3,8.875,5.152a8.241,8.241,0,0,0-1.484,2.4c-.884-.158-1.706-.347-2.432-.537v12.536H334.026V322.073h6.349a7.645,7.645,0,0,0-1.3-1.927c5.085-.822,6.885-2.339,7.611-4.931Zm7.865,8.718H336.869V325.7h14.813Zm0,3.537H336.869v1.8h14.813Zm0,3.6H336.869v1.836h14.813Zm2.431-9c-3.158-.98-4.8-2.465-5.78-4.14-1.2,1.928-3.284,3.255-7.042,4.14Zm-5.337,12.819a99.743,99.743,0,0,1,9.443,3.664l-3.379,1.389a64.028,64.028,0,0,0-8.465-3.569Z" fill="#FFFFFF"/>
      <path id="Path_1287" data-name="Path 1287" d="M372.937,318.437H361.156V316.1h11.781Zm14.118-6.125c-.221,12.191-.221,23.877,1.674,24.319.189.063.442-2.179.537-4.611a12.953,12.953,0,0,0,1.705,2.274c-.41,5.053-1.705,6.127-3.506,5.369-3.442-1.168-3.442-11.812-3.41-24.54h-4.422v7.769h3.537v2.748h-3.664c-.316,4.96-1.547,10.14-5.779,14.274a11.2,11.2,0,0,0-1.832-1.832v.063H365.1v1.327h-2.526V328.864h9.317v8.745c3.411-3.567,4.485-7.831,4.8-11.969h-3.759v-2.748h3.885v-7.769h-3.537v-2.811Zm-15.192,10.357h-9.254V320.4h9.254Zm-9.254,1.931h9.254v2.3h-9.254Zm9.191-10.364h-9.065v-2.3H371.8Zm-2.432,16.993H365.1v4.551h4.264Z" fill="#FFFFFF"/>
      <path id="Path_1288" data-name="Path 1288" d="M403.415,327.156l-3.6,1.042v8.307c0,1.516-.315,2.306-1.231,2.747a10.832,10.832,0,0,1-4.485.506,11.371,11.371,0,0,0-.884-2.653c1.39.032,2.716.032,3.1,0,.474,0,.631-.158.631-.6V329.02c-1.231.347-2.368.663-3.474.947l-.758-2.811c1.2-.284,2.653-.632,4.232-1.01V319.8h-3.884v-2.716h3.884v-6.19h2.874v6.158h3.317V319.8h-3.317v5.559l3.254-.853Zm17.024-3.853a22.967,22.967,0,0,1-6.159,10.454,22.13,22.13,0,0,0,7.769,3.664,10.427,10.427,0,0,0-1.9,2.495,21.964,21.964,0,0,1-8.18-4.264,26.717,26.717,0,0,1-8.622,4.2,12.538,12.538,0,0,0-1.579-2.653,25.373,25.373,0,0,0,8.117-3.569,25.522,25.522,0,0,1-4.9-8.18l.411-.127h-1.263V322.64h6.506v-4.327h-7.075v-2.685h7.075v-4.737h2.906v4.737h7.3v2.685h-7.3v4.327h4.485l.505-.1Zm-12.57,2.021a19.953,19.953,0,0,0,4.232,6.507,18.794,18.794,0,0,0,4.611-6.507Z" fill="#FFFFFF"/>
      <path id="Path_1289" data-name="Path 1289" d="M439.958,320.4v19.014h-2.749V320.4h-4.453v-1.674a36.479,36.479,0,0,1-2.305,4.011v17.15h-2.717V326.3a24.815,24.815,0,0,1-2.4,2.432,20.794,20.794,0,0,0-1.642-2.621,25.419,25.419,0,0,0,6.664-8.812l2.4.79v-.411h4.453v-6.317h2.749v6.317h4.484V320.4Zm-7.739-8.559a30.129,30.129,0,0,1-6.537,7.422c-.379-.6-1.138-1.642-1.579-2.211a20.409,20.409,0,0,0,5.432-6.158Zm3.538,12.349c-.348,4.422-.98,8.717-2.338,11.591a13.761,13.761,0,0,0-1.989-1.389c1.2-2.59,1.674-6.57,1.926-10.517Zm7.169-7.264a21.222,21.222,0,0,0-2.337-4.359l1.927-.884a20.935,20.935,0,0,1,2.463,4.264Zm.379,7.012a59.811,59.811,0,0,1,1.579,9.316l-2.3.411a74.2,74.2,0,0,0-1.453-9.317Zm10.044.063h-2.685v12.57c0,1.453-.221,2.306-1.2,2.811-.979.442-2.432.474-4.58.474a12.911,12.911,0,0,0-.821-2.843c1.484.063,2.843.063,3.285.032.41,0,.537-.126.537-.537V324h-3.222v-2.653h8.686Zm-.474-8.717h-7.454v-2.622h7.454Z" fill="#FFFFFF"/>
      <path id="Path_1290" data-name="Path 1290" d="M467.37,336.57c0,1.42-.252,2.3-1.136,2.776-.882.505-2.177.568-4.3.536a9.349,9.349,0,0,0-.79-2.807c1.3.063,2.561.032,2.972.032.38-.032.538-.158.538-.6V329.4H460.39c-.284,3.729-.883,7.647-2.27,10.549a9.887,9.887,0,0,0-2.4-1.356c2.085-4.358,2.243-10.675,2.243-15.287V312.029h9.408Zm-2.712-9.949v-4.646h-4.047V323.3c0,1.011,0,2.15-.063,3.319Zm-4.047-11.879v4.488h4.047v-4.488Zm23.751,8.592a27.188,27.188,0,0,1-4.07,10.518,16.209,16.209,0,0,0,5.017,3.79,10.046,10.046,0,0,0-1.894,2.274,17.7,17.7,0,0,1-4.8-3.885,18.27,18.27,0,0,1-4.424,3.727,9.135,9.135,0,0,0-1.707-2.116v2.242h-2.775V312.091h13.735v6.064c0,1.358-.284,2.116-1.388,2.495a16.841,16.841,0,0,1-5.116.411,10.312,10.312,0,0,0-.917-2.5c1.738.063,3.508.063,3.95.032.506,0,.664-.095.664-.474v-3.285h-8.153v7.991h9.7l.473-.1Zm-11.876,14.245a15.062,15.062,0,0,0,4.488-3.727,29.83,29.83,0,0,1-3.919-8.338h-.569Zm3.065-12.065a23.854,23.854,0,0,0,3,6.1,23.68,23.68,0,0,0,2.654-6.1Z" fill="#FFFFFF"/>
      <path id="Path_1291" data-name="Path 1291" d="M513.958,316.576a15.276,15.276,0,0,1-3.506,5.053,22.249,22.249,0,0,0,6.38,2.369A10.831,10.831,0,0,0,515,326.461a22.432,22.432,0,0,1-6.854-3.032,26.2,26.2,0,0,1-6.664,2.969,8.481,8.481,0,0,0-.821-1.3,43,43,0,0,1-1.737,5.085l-2.022-1.011a34.647,34.647,0,0,0,1.39-4.737H495.86v12.128c0,1.421-.221,2.211-1.169,2.716a10.911,10.911,0,0,1-4.169.474,10.338,10.338,0,0,0-.853-2.779c1.264.063,2.527.063,2.906.031s.506-.094.506-.473v-8.56a22.349,22.349,0,0,1-4.264,6.854,14.091,14.091,0,0,0-1.484-2.811,20.884,20.884,0,0,0,4.832-7.58h-4.391v-2.558h8.055a39.092,39.092,0,0,0-6.76-3.727l1.832-1.895c.885.347,1.895.789,2.843,1.263a18.028,18.028,0,0,0,2.716-2.653h-8.306v-2.495h10.39l.475-.1,1.895,1.169a22.168,22.168,0,0,1-4.928,5.274,21.941,21.941,0,0,1,2.527,1.674l-1.358,1.485h1.958l.442-.158,1.769.631c-.1.411-.189.822-.284,1.264a20.956,20.956,0,0,0,4.832-1.99,18.652,18.652,0,0,1-2.811-3.316,20.521,20.521,0,0,1-1.9,1.832,17.337,17.337,0,0,0-2.432-1.674,18.839,18.839,0,0,0,6-7.612l2.748.758a26.61,26.61,0,0,1-1.3,2.495h9.949v2.464Zm1.61,11.843s-.031.758-.094,1.169c-.537,5.654-1.106,8.085-1.99,9.033a3.356,3.356,0,0,1-2.116.947,31.455,31.455,0,0,1-3.506,0,7.647,7.647,0,0,0-.79-2.716c1.232.127,2.4.158,2.938.158a1.21,1.21,0,0,0,1.01-.347c.537-.474.98-2.085,1.39-5.78h-4.58a12.627,12.627,0,0,1-8.275,9,8.7,8.7,0,0,0-1.737-2.274c4.106-1.484,6.033-3.853,7.012-6.727h-4.422v-2.464h5.053c.159-.979.285-1.958.379-3h2.906c-.1,1.042-.221,2.021-.379,3Zm-10.675-11.843a14.361,14.361,0,0,0,3.19,3.474,11.44,11.44,0,0,0,2.653-3.474Z" fill="#FFFFFF"/>
      <path id="Path_1292" data-name="Path 1292" d="M546.331,316.417v15.1h-3.064v-1.706h-8.212v10.044h-3.063V329.809h-8.18v1.863h-2.938V316.417h11.118v-5.495h3.063v5.495Zm-14.339,10.518v-7.643h-8.18v7.643Zm11.275,0v-7.643h-8.212v7.643Z" fill="#FFFFFF"/>
      <path id="Path_1293" data-name="Path 1293" d="M556.469,322.671c-.474,4.264-1.39,9.16-3.537,12.191l-2.717-1.579c1.99-2.747,2.969-7.075,3.38-11.18Zm5.558-2.969v15.35c0,1.485.316,1.737,1.927,1.737h5.117c1.737,0,2.021-1.074,2.274-6.253a7.882,7.882,0,0,0,2.716,1.263c-.379,5.938-1.2,7.675-4.769,7.675h-5.654c-3.632,0-4.642-.979-4.642-4.422V319.7Zm-.947-8.685a50.62,50.62,0,0,1,10.644,5.306l-1.927,2.59a47.569,47.569,0,0,0-10.612-5.654Zm13.3,9.949a33.43,33.43,0,0,1,5.812,11.5l-2.937,1.421a33.8,33.8,0,0,0-5.527-11.559Z" fill="#FFFFFF"/>
    </g>
    <rect id="Rectangle_291" data-name="Rectangle 291" width="1.263" height="28.425" transform="translate(309.043 311.824)" fill="#FFFFFF"/>
  </g>
</svg>

